inDegrees=no
num_controls=7
num_derivatives=13
num_iterations=131
num_multipliers=7
num_parameters=0
num_slacks=7
num_states=26
objective=0.516797
objective_accelerations=0.039475
objective_balance=0.002156
objective_effort=0.043323
objective_height=0.420214
objective_ligament=0.011628
solver_duration=1748.542566
status=Solve_Succeeded
success=true
DataType=double
version=3
OpenSimVersion=4.5
endheader
time	/jointset/ground_pelvis/pelvis_tilt/value	/jointset/ground_pelvis/pelvis_tx/value	/jointset/ground_pelvis/pelvis_ty/value	/jointset/hip_l/hip_flexion_l/value	/jointset/hip_l/hip_adduction_l/value	/jointset/hip_l/hip_rotation_l/value	/jointset/back/lumbar_extension/value	/jointset/patellofemoral_l/patellar_flexion_l/value	/jointset/knee_l/knee_flexion_l/value	/jointset/knee_l/knee_adduction_l/value	/jointset/knee_l/knee_rotation_l/value	/jointset/ankle_l/ankle_angle_l/value	/jointset/subtalar_l/subtalar_angle_l/value	/jointset/ground_pelvis/pelvis_tilt/speed	/jointset/ground_pelvis/pelvis_tx/speed	/jointset/ground_pelvis/pelvis_ty/speed	/jointset/hip_l/hip_flexion_l/speed	/jointset/hip_l/hip_adduction_l/speed	/jointset/hip_l/hip_rotation_l/speed	/jointset/back/lumbar_extension/speed	/jointset/patellofemoral_l/patellar_flexion_l/speed	/jointset/knee_l/knee_flexion_l/speed	/jointset/knee_l/knee_adduction_l/speed	/jointset/knee_l/knee_rotation_l/speed	/jointset/ankle_l/ankle_angle_l/speed	/jointset/subtalar_l/subtalar_angle_l/speed	/forceset/tau_hip_flexion_l	/forceset/tau_hip_adduction_l	/forceset/tau_hip_rotation_l	/forceset/tau_knee_flexion_l	/forceset/tau_ankle_angle_l	/forceset/tau_subtalar_angle_l	/forceset/tau_lumbar_extension	lambda_cid13_p0	lambda_cid13_p1	lambda_cid13_p2	lambda_cid13_p3	lambda_cid13_p4	lambda_cid13_p5	lambda_cid14_p0	/jointset/ground_pelvis/pelvis_tilt/accel	/jointset/ground_pelvis/pelvis_tx/accel	/jointset/ground_pelvis/pelvis_ty/accel	/jointset/hip_l/hip_flexion_l/accel	/jointset/hip_l/hip_adduction_l/accel	/jointset/hip_l/hip_rotation_l/accel	/jointset/back/lumbar_extension/accel	/jointset/patellofemoral_l/patellar_flexion_l/accel	/jointset/knee_l/knee_flexion_l/accel	/jointset/knee_l/knee_adduction_l/accel	/jointset/knee_l/knee_rotation_l/accel	/jointset/ankle_l/ankle_angle_l/accel	/jointset/subtalar_l/subtalar_angle_l/accel	gamma_cid13_p0	gamma_cid13_p1	gamma_cid13_p2	gamma_cid13_p3	gamma_cid13_p4	gamma_cid13_p5	gamma_cid14_p0
0	-0.03682129115232589	0.05667679358804529	0.9203416113083035	0.3085816938045678	-0.2956396154902577	-0.3015909672335021	-0.3879492264334186	0.2499269421184925	0.2499269421184919	-0.1745329205618914	-0.1745166928715405	-0.0008036623358878681	0.0004382835847183974	0	0	0	0	0	0	0	0	0	0	0	0	0	0.06229529394318332	-0.03591445747797981	-0.01780040722351436	-0.2250888146955315	0.1570571043505337	-0.01215623762489663	0.009632413802784349	6.417927741227259	1.294255402113063	2.607835229945831	21.48294432602875	-629.5346554520174	-72.34690944677172	-23.19643510004516	-1.301100997701048	-2.178393764965473	-0.8357323175897379	8.707237726662068	-0.5196562568721894	2.599296396966661	-6.954815256576103	7.444455857324646	7.444455857324088	1.305874482364934	-0.05853032623920972	0.500599565032679	-0.39757478652997	1.86419489167067e-08	1.056065674788852e-07	-2.136424739091677e-09	-1.378406234150765e-08	1.15779113253665e-07	4.812259022455184e-08	9.638819719237452e-09
0.01	-0.03688225745484883	0.05657021337074517	0.920300780602184	0.3090054502336094	-0.2956662395236766	-0.3014600235951249	-0.3882947651920415	0.2502926426260667	0.2502926426260703	-0.1744713038446323	-0.1745168998749494	-0.000778228671408668	0.0004178687329295324	-0.01208378208975485	-0.02110037505368687	-0.008127686590947541	0.08420542327852885	-0.005339659230551538	0.02611373544636543	-0.06857204254765209	0.07290948935673039	0.07290948935672747	0.01221024625640847	-3.825101404256168e-05	0.005268225723768222	-0.004034760406728563	0.05811583270273545	-0.04349949055469421	-0.01759071503465948	-0.2247611258741573	0.157887064114436	-0.00386055349313694	0.01451220031435082	6.929233007738087	-2.301574818746785	3.070870074994583	18.53872210452349	-632.2518143143757	-79.4432262534588	-23.20059271362626	-1.145598895284927	-2.04351187147972	-0.7954954790808938	8.195313633485837	-0.5433638887376174	2.606168231928276	-6.728042377276855	7.179601723337645	7.17960172333751	1.16165146100328	0.02399656462437014	0.5671622795650444	-0.3992119939219315	-7.129989348960589e-09	9.578231753436627e-08	7.02472517800671e-08	6.272017966512338e-09	1.997785642728062e-08	-2.026471254094733e-09	8.025953456490464e-11
0.02	-0.03706077799440384	0.05625909890372625	0.9201798313003083	0.3102548846964402	-0.2957467087759185	-0.3010701913795912	-0.3893099531008244	0.2513805192769088	0.2513805192769092	-0.174290974312058	-0.1745173955777712	-0.0006946671089884412	0.0003585492118378542	-0.02351084740639497	-0.04090684994376	-0.01602371915122259	0.1651356067585603	-0.01076904376473932	0.05177771543100292	-0.1339298300319846	0.1444352286530774	0.1444352286530725	0.02374256306179444	-5.77398836393674e-05	0.01162557958818258	-0.007780933860562947	0.05393637146225952	-0.05108452363141972	-0.01738102284582935	-0.2244334370527949	0.1587170238783309	0.00443513063860907	0.0193919868259038	7.498696757257258	-5.90548063571819	3.532784670250138	15.54640191904976	-634.0711942999415	-86.46479255217334	-23.21290278327918	-1.16975764307808	-1.919613732242744	-0.7894015114552398	8.052189766962581	-0.5376013175994376	2.509345304621072	-6.311964243912165	7.167705845247982	7.167705845247592	1.170288592160436	-0.05477789735005983	0.718425193161888	-0.3398573959511396	-3.290192761462788e-08	8.595806758984733e-08	1.426309282992259e-07	2.632809827453233e-08	-7.582340039910378e-08	-5.217553273274131e-08	-9.478300650107642e-09
0.03	-0.03735092431270964	0.0557553027962295	0.9199808778397711	0.3122986005894974	-0.2958811571788605	-0.3004273583891297	-0.3909627941976535	0.2531751178093286	0.2531751178093267	-0.1739978136502535	-0.1745185021494227	-0.0005443643893215282	0.000263226700632708	-0.03445320831977996	-0.05974525347692333	-0.02374553662942066	0.2431757272032294	-0.01606342942342142	0.07663995839632305	-0.1961388349809332	0.2140879840175776	0.2140879840175808	0.0348522323583557	-0.0001499514920580029	0.01839269373315872	-0.01123761776833615	0.0461119595739793	-0.04470237538855956	-0.01634049522790138	-0.2168247982735451	0.1509757521609157	0.003619097323095329	0.02608793306446791	4.916350956011235	-5.188718018963565	3.521075682321323	16.34578476869328	-635.7723452745056	-84.00661472858698	-23.23297337200395	-1.046697900594328	-1.849880605440895	-0.760371968736419	7.615140860569086	-0.5168058200346721	2.452306421993133	-6.100435467408363	6.804588244361295	6.804588244362827	1.075732984251989	0.01562327731956719	0.6495153782578473	-0.3417114175441898	-4.565793007869779e-08	8.869718705825619e-08	1.675436463148796e-07	4.458310019990391e-08	-1.492345882317748e-07	-6.645426637079965e-08	-1.05956815514268e-08
0.04	-0.03774853875717557	0.05506633726508354	0.919705346183905	0.3151097612224711	-0.2960668391643957	-0.2995403744431137	-0.3932227387133767	0.2556543494678542	0.2556543494678523	-0.1735946709183141	-0.1745201176231781	-0.0003276583575864193	0.0001347098444790678	-0.04500447263818472	-0.07794073467360386	-0.03133935821698803	0.3186245547418999	-0.02101576028338685	0.100607906541869	-0.2553505138107646	0.281361853874488	0.2813618538745035	0.04573897708883789	-0.0001595203041829715	0.0249062420018293	-0.01441980285026052	0.03828754768570211	-0.03832022714569856	-0.01529996760996221	-0.2092161594942966	0.1432344804435003	0.002803064007582258	0.03278387930303413	2.388034695577863	-4.478529426440114	3.507118061705809	17.09023598977141	-636.6500113887832	-81.47735951853942	-23.26018261937122	-1.091538324082014	-1.791029264946201	-0.7638023333291026	7.533931185762862	-0.4691903578561039	2.330486340666237	-5.712499020088688	6.691928743730029	6.691928743730473	1.125703678944627	-0.03824933809132552	0.6677120179007613	-0.2849576307813784	-5.814556273242549e-08	9.169534507126153e-08	1.914775816809765e-07	6.280096648851986e-08	-2.22184125157359e-07	-7.999340562039224e-08	-1.153901751906856e-08
0.05	-0.0382500307448674	0.05419868347863306	0.9193542532780326	0.3186635089623845	-0.2963007559621668	-0.298417838934119	-0.3960612540970572	0.2587958209665618	0.2587958209665591	-0.1730843397352012	-0.1745216547370169	-4.65501020493555e-05	-2.451505978241874e-05	-0.05523228856322217	-0.09547615979635909	-0.03887872499691022	0.3917431269324776	-0.02575844800127717	0.1237875184621277	-0.31202732172382	0.3466420005221382	0.3466420005221459	0.05621128767067127	-0.0001486074281338417	0.03131496198527588	-0.01741524399478308	0.03364932415511374	-0.03785524634704905	-0.01483188630641833	-0.20704079489732	0.1415949582359066	0.004452852914883004	0.03701703203015978	1.956744330608029	-5.113576760297733	3.601576968425186	16.340839525444	-636.8528139997147	-82.10034595595455	-23.2937345784655	-0.9791583936990357	-1.717707005551321	-0.7489741825490687	7.143534593360146	-0.4754693460742065	2.294920654584674	-5.596485496646803	6.402493139000108	6.402493138998717	0.9906311735273738	0.02068704278621854	0.6273853294539352	-0.3053835677702761	-6.953697310397175e-08	5.997373508355074e-08	2.262714548481433e-07	7.020244330480833e-08	-2.703503973743626e-07	-1.047342691743306e-07	-1.882795972097692e-08
